<mxfile host="app.diagrams.net" modified="2023-06-05T12:09:53.848Z" agent="Mozilla/5.0 (Windows NT 10.0; Win64; x64) AppleWebKit/537.36 (KHTML, like Gecko) Chrome/114.0.0.0 Safari/537.36" etag="3hVpXoH_N7jogMSbYiI8" version="21.3.7" type="device">
  <diagram name="Página-1" id="l9ct1ItgtFTjxxuwiIV3">
    <mxGraphModel dx="1646" dy="437" grid="1" gridSize="10" guides="1" tooltips="1" connect="1" arrows="1" fold="1" page="1" pageScale="1" pageWidth="827" pageHeight="1169" background="#999999" math="0" shadow="0">
      <root>
        <mxCell id="0" />
        <mxCell id="1" parent="0" />
        <mxCell id="c2Z83wSw2Ba0KcHivkK4-30" value="" style="edgeStyle=orthogonalEdgeStyle;rounded=0;orthogonalLoop=1;jettySize=auto;html=1;endArrow=none;endFill=0;" edge="1" parent="1" source="c2Z83wSw2Ba0KcHivkK4-2" target="c2Z83wSw2Ba0KcHivkK4-29">
          <mxGeometry relative="1" as="geometry" />
        </mxCell>
        <mxCell id="c2Z83wSw2Ba0KcHivkK4-53" value="N" style="edgeLabel;html=1;align=center;verticalAlign=middle;resizable=0;points=[];" vertex="1" connectable="0" parent="c2Z83wSw2Ba0KcHivkK4-30">
          <mxGeometry x="0.9082" relative="1" as="geometry">
            <mxPoint as="offset" />
          </mxGeometry>
        </mxCell>
        <mxCell id="c2Z83wSw2Ba0KcHivkK4-54" value="1" style="edgeLabel;html=1;align=center;verticalAlign=middle;resizable=0;points=[];" vertex="1" connectable="0" parent="c2Z83wSw2Ba0KcHivkK4-30">
          <mxGeometry x="-0.9348" relative="1" as="geometry">
            <mxPoint as="offset" />
          </mxGeometry>
        </mxCell>
        <mxCell id="c2Z83wSw2Ba0KcHivkK4-37" style="rounded=0;orthogonalLoop=1;jettySize=auto;html=1;entryX=0.5;entryY=1;entryDx=0;entryDy=0;endArrow=none;endFill=0;exitX=0.5;exitY=0;exitDx=0;exitDy=0;" edge="1" parent="1" source="c2Z83wSw2Ba0KcHivkK4-2" target="c2Z83wSw2Ba0KcHivkK4-35">
          <mxGeometry relative="1" as="geometry" />
        </mxCell>
        <mxCell id="c2Z83wSw2Ba0KcHivkK4-38" style="rounded=0;orthogonalLoop=1;jettySize=auto;html=1;exitX=0.5;exitY=0;exitDx=0;exitDy=0;entryX=0.5;entryY=1;entryDx=0;entryDy=0;endArrow=none;endFill=0;" edge="1" parent="1" source="c2Z83wSw2Ba0KcHivkK4-2" target="c2Z83wSw2Ba0KcHivkK4-31">
          <mxGeometry relative="1" as="geometry" />
        </mxCell>
        <mxCell id="c2Z83wSw2Ba0KcHivkK4-39" style="rounded=0;orthogonalLoop=1;jettySize=auto;html=1;exitX=0.5;exitY=0;exitDx=0;exitDy=0;entryX=0.5;entryY=1;entryDx=0;entryDy=0;endArrow=none;endFill=0;" edge="1" parent="1" source="c2Z83wSw2Ba0KcHivkK4-2" target="c2Z83wSw2Ba0KcHivkK4-36">
          <mxGeometry relative="1" as="geometry" />
        </mxCell>
        <mxCell id="c2Z83wSw2Ba0KcHivkK4-40" style="rounded=0;orthogonalLoop=1;jettySize=auto;html=1;exitX=0.5;exitY=0;exitDx=0;exitDy=0;entryX=0.5;entryY=1;entryDx=0;entryDy=0;endArrow=none;endFill=0;" edge="1" parent="1" source="c2Z83wSw2Ba0KcHivkK4-2" target="c2Z83wSw2Ba0KcHivkK4-32">
          <mxGeometry relative="1" as="geometry" />
        </mxCell>
        <mxCell id="c2Z83wSw2Ba0KcHivkK4-50" style="rounded=0;orthogonalLoop=1;jettySize=auto;html=1;entryX=0;entryY=0.5;entryDx=0;entryDy=0;endArrow=none;endFill=0;" edge="1" parent="1" source="c2Z83wSw2Ba0KcHivkK4-2" target="c2Z83wSw2Ba0KcHivkK4-3">
          <mxGeometry relative="1" as="geometry" />
        </mxCell>
        <mxCell id="c2Z83wSw2Ba0KcHivkK4-51" value="1" style="edgeLabel;html=1;align=center;verticalAlign=middle;resizable=0;points=[];" vertex="1" connectable="0" parent="c2Z83wSw2Ba0KcHivkK4-50">
          <mxGeometry x="0.9323" y="1" relative="1" as="geometry">
            <mxPoint as="offset" />
          </mxGeometry>
        </mxCell>
        <mxCell id="c2Z83wSw2Ba0KcHivkK4-52" value="N" style="edgeLabel;html=1;align=center;verticalAlign=middle;resizable=0;points=[];" vertex="1" connectable="0" parent="c2Z83wSw2Ba0KcHivkK4-50">
          <mxGeometry x="-0.9619" y="1" relative="1" as="geometry">
            <mxPoint as="offset" />
          </mxGeometry>
        </mxCell>
        <mxCell id="c2Z83wSw2Ba0KcHivkK4-2" value="solicitações" style="shape=rhombus;perimeter=rhombusPerimeter;whiteSpace=wrap;html=1;align=center;" vertex="1" parent="1">
          <mxGeometry x="350" y="360" width="120" height="60" as="geometry" />
        </mxCell>
        <mxCell id="c2Z83wSw2Ba0KcHivkK4-10" style="edgeStyle=orthogonalEdgeStyle;rounded=0;orthogonalLoop=1;jettySize=auto;html=1;entryX=0.5;entryY=0;entryDx=0;entryDy=0;endArrow=none;endFill=0;" edge="1" parent="1" source="c2Z83wSw2Ba0KcHivkK4-3" target="c2Z83wSw2Ba0KcHivkK4-9">
          <mxGeometry relative="1" as="geometry">
            <mxPoint x="740" y="520" as="targetPoint" />
          </mxGeometry>
        </mxCell>
        <mxCell id="c2Z83wSw2Ba0KcHivkK4-11" style="rounded=0;orthogonalLoop=1;jettySize=auto;html=1;exitX=0.5;exitY=1;exitDx=0;exitDy=0;entryX=0.5;entryY=0;entryDx=0;entryDy=0;endArrow=none;endFill=0;" edge="1" parent="1" source="c2Z83wSw2Ba0KcHivkK4-3" target="c2Z83wSw2Ba0KcHivkK4-6">
          <mxGeometry relative="1" as="geometry" />
        </mxCell>
        <mxCell id="c2Z83wSw2Ba0KcHivkK4-12" style="rounded=0;orthogonalLoop=1;jettySize=auto;html=1;exitX=0.5;exitY=1;exitDx=0;exitDy=0;entryX=0.5;entryY=0;entryDx=0;entryDy=0;endArrow=none;endFill=0;" edge="1" parent="1" source="c2Z83wSw2Ba0KcHivkK4-3" target="c2Z83wSw2Ba0KcHivkK4-8">
          <mxGeometry relative="1" as="geometry" />
        </mxCell>
        <mxCell id="c2Z83wSw2Ba0KcHivkK4-13" style="rounded=0;orthogonalLoop=1;jettySize=auto;html=1;exitX=0.5;exitY=1;exitDx=0;exitDy=0;entryX=0.5;entryY=0;entryDx=0;entryDy=0;endArrow=none;endFill=0;" edge="1" parent="1" source="c2Z83wSw2Ba0KcHivkK4-3" target="c2Z83wSw2Ba0KcHivkK4-7">
          <mxGeometry relative="1" as="geometry" />
        </mxCell>
        <mxCell id="c2Z83wSw2Ba0KcHivkK4-14" style="rounded=0;orthogonalLoop=1;jettySize=auto;html=1;exitX=0.5;exitY=1;exitDx=0;exitDy=0;entryX=0.5;entryY=0;entryDx=0;entryDy=0;endArrow=none;endFill=0;" edge="1" parent="1" source="c2Z83wSw2Ba0KcHivkK4-3">
          <mxGeometry relative="1" as="geometry">
            <mxPoint x="629.9999999999998" y="429.9999999999999" as="targetPoint" />
          </mxGeometry>
        </mxCell>
        <mxCell id="c2Z83wSw2Ba0KcHivkK4-3" value="funcionarios" style="whiteSpace=wrap;html=1;align=center;" vertex="1" parent="1">
          <mxGeometry x="690" y="370" width="100" height="40" as="geometry" />
        </mxCell>
        <mxCell id="c2Z83wSw2Ba0KcHivkK4-16" style="edgeStyle=orthogonalEdgeStyle;rounded=0;orthogonalLoop=1;jettySize=auto;html=1;entryX=0.5;entryY=1;entryDx=0;entryDy=0;endArrow=none;endFill=0;" edge="1" parent="1" source="c2Z83wSw2Ba0KcHivkK4-4" target="c2Z83wSw2Ba0KcHivkK4-2">
          <mxGeometry relative="1" as="geometry" />
        </mxCell>
        <mxCell id="c2Z83wSw2Ba0KcHivkK4-57" value="N" style="edgeLabel;html=1;align=center;verticalAlign=middle;resizable=0;points=[];" vertex="1" connectable="0" parent="c2Z83wSw2Ba0KcHivkK4-16">
          <mxGeometry x="-0.9007" y="1" relative="1" as="geometry">
            <mxPoint as="offset" />
          </mxGeometry>
        </mxCell>
        <mxCell id="c2Z83wSw2Ba0KcHivkK4-58" value="1" style="edgeLabel;html=1;align=center;verticalAlign=middle;resizable=0;points=[];" vertex="1" connectable="0" parent="c2Z83wSw2Ba0KcHivkK4-16">
          <mxGeometry x="0.9224" y="1" relative="1" as="geometry">
            <mxPoint as="offset" />
          </mxGeometry>
        </mxCell>
        <mxCell id="c2Z83wSw2Ba0KcHivkK4-23" style="rounded=0;orthogonalLoop=1;jettySize=auto;html=1;exitX=0.5;exitY=1;exitDx=0;exitDy=0;entryX=0.5;entryY=0;entryDx=0;entryDy=0;endArrow=none;endFill=0;" edge="1" parent="1" source="c2Z83wSw2Ba0KcHivkK4-4" target="c2Z83wSw2Ba0KcHivkK4-22">
          <mxGeometry relative="1" as="geometry" />
        </mxCell>
        <mxCell id="c2Z83wSw2Ba0KcHivkK4-24" style="rounded=0;orthogonalLoop=1;jettySize=auto;html=1;exitX=0.5;exitY=1;exitDx=0;exitDy=0;entryX=0.5;entryY=0;entryDx=0;entryDy=0;endArrow=none;endFill=0;" edge="1" parent="1" source="c2Z83wSw2Ba0KcHivkK4-4" target="c2Z83wSw2Ba0KcHivkK4-21">
          <mxGeometry relative="1" as="geometry" />
        </mxCell>
        <mxCell id="c2Z83wSw2Ba0KcHivkK4-4" value="departamentos" style="whiteSpace=wrap;html=1;align=center;" vertex="1" parent="1">
          <mxGeometry x="360" y="630" width="100" height="40" as="geometry" />
        </mxCell>
        <mxCell id="c2Z83wSw2Ba0KcHivkK4-6" value="nome_func" style="ellipse;whiteSpace=wrap;html=1;align=center;" vertex="1" parent="1">
          <mxGeometry x="630" y="480" width="100" height="40" as="geometry" />
        </mxCell>
        <mxCell id="c2Z83wSw2Ba0KcHivkK4-7" value="sexo" style="ellipse;whiteSpace=wrap;html=1;align=center;" vertex="1" parent="1">
          <mxGeometry x="810" y="430" width="100" height="40" as="geometry" />
        </mxCell>
        <mxCell id="c2Z83wSw2Ba0KcHivkK4-8" value="cidade" style="ellipse;whiteSpace=wrap;html=1;align=center;" vertex="1" parent="1">
          <mxGeometry x="750" y="480" width="100" height="40" as="geometry" />
        </mxCell>
        <mxCell id="c2Z83wSw2Ba0KcHivkK4-9" value="estado" style="ellipse;whiteSpace=wrap;html=1;align=center;" vertex="1" parent="1">
          <mxGeometry x="690" y="530" width="100" height="40" as="geometry" />
        </mxCell>
        <mxCell id="c2Z83wSw2Ba0KcHivkK4-18" value="cod_func" style="ellipse;whiteSpace=wrap;html=1;align=center;fontStyle=4;" vertex="1" parent="1">
          <mxGeometry x="580" y="430" width="100" height="40" as="geometry" />
        </mxCell>
        <mxCell id="c2Z83wSw2Ba0KcHivkK4-27" style="rounded=0;orthogonalLoop=1;jettySize=auto;html=1;exitX=0.5;exitY=1;exitDx=0;exitDy=0;entryX=0.5;entryY=0;entryDx=0;entryDy=0;endArrow=none;endFill=0;" edge="1" parent="1" source="c2Z83wSw2Ba0KcHivkK4-19" target="c2Z83wSw2Ba0KcHivkK4-26">
          <mxGeometry relative="1" as="geometry" />
        </mxCell>
        <mxCell id="c2Z83wSw2Ba0KcHivkK4-28" style="rounded=0;orthogonalLoop=1;jettySize=auto;html=1;exitX=0.5;exitY=1;exitDx=0;exitDy=0;entryX=0.5;entryY=0;entryDx=0;entryDy=0;endArrow=none;endFill=0;" edge="1" parent="1" source="c2Z83wSw2Ba0KcHivkK4-19" target="c2Z83wSw2Ba0KcHivkK4-25">
          <mxGeometry relative="1" as="geometry" />
        </mxCell>
        <mxCell id="c2Z83wSw2Ba0KcHivkK4-34" style="edgeStyle=orthogonalEdgeStyle;rounded=0;orthogonalLoop=1;jettySize=auto;html=1;entryX=0;entryY=0.5;entryDx=0;entryDy=0;endArrow=none;endFill=0;" edge="1" parent="1" source="c2Z83wSw2Ba0KcHivkK4-19" target="c2Z83wSw2Ba0KcHivkK4-29">
          <mxGeometry relative="1" as="geometry" />
        </mxCell>
        <mxCell id="c2Z83wSw2Ba0KcHivkK4-55" value="1" style="edgeLabel;html=1;align=center;verticalAlign=middle;resizable=0;points=[];" vertex="1" connectable="0" parent="c2Z83wSw2Ba0KcHivkK4-34">
          <mxGeometry x="0.9265" y="1" relative="1" as="geometry">
            <mxPoint as="offset" />
          </mxGeometry>
        </mxCell>
        <mxCell id="c2Z83wSw2Ba0KcHivkK4-56" value="N" style="edgeLabel;html=1;align=center;verticalAlign=middle;resizable=0;points=[];" vertex="1" connectable="0" parent="c2Z83wSw2Ba0KcHivkK4-34">
          <mxGeometry x="-0.9293" y="2" relative="1" as="geometry">
            <mxPoint as="offset" />
          </mxGeometry>
        </mxCell>
        <mxCell id="c2Z83wSw2Ba0KcHivkK4-19" value="produtos" style="whiteSpace=wrap;html=1;align=center;" vertex="1" parent="1">
          <mxGeometry x="-290" y="370" width="100" height="40" as="geometry" />
        </mxCell>
        <mxCell id="c2Z83wSw2Ba0KcHivkK4-21" value="cod_depto" style="ellipse;whiteSpace=wrap;html=1;align=center;fontStyle=4;" vertex="1" parent="1">
          <mxGeometry x="430" y="740" width="100" height="40" as="geometry" />
        </mxCell>
        <mxCell id="c2Z83wSw2Ba0KcHivkK4-22" value="nome_depto" style="ellipse;whiteSpace=wrap;html=1;align=center;" vertex="1" parent="1">
          <mxGeometry x="290" y="740" width="100" height="40" as="geometry" />
        </mxCell>
        <mxCell id="c2Z83wSw2Ba0KcHivkK4-25" value="cod_produto" style="ellipse;whiteSpace=wrap;html=1;align=center;fontStyle=4;" vertex="1" parent="1">
          <mxGeometry x="-360" y="460" width="100" height="40" as="geometry" />
        </mxCell>
        <mxCell id="c2Z83wSw2Ba0KcHivkK4-26" value="nome_produto" style="ellipse;whiteSpace=wrap;html=1;align=center;" vertex="1" parent="1">
          <mxGeometry x="-220" y="460" width="100" height="40" as="geometry" />
        </mxCell>
        <mxCell id="c2Z83wSw2Ba0KcHivkK4-46" style="rounded=0;orthogonalLoop=1;jettySize=auto;html=1;exitX=0.5;exitY=1;exitDx=0;exitDy=0;entryX=0.5;entryY=0;entryDx=0;entryDy=0;endArrow=none;endFill=0;" edge="1" parent="1" source="c2Z83wSw2Ba0KcHivkK4-29" target="c2Z83wSw2Ba0KcHivkK4-42">
          <mxGeometry relative="1" as="geometry" />
        </mxCell>
        <mxCell id="c2Z83wSw2Ba0KcHivkK4-47" style="rounded=0;orthogonalLoop=1;jettySize=auto;html=1;exitX=0.5;exitY=1;exitDx=0;exitDy=0;entryX=0.5;entryY=0;entryDx=0;entryDy=0;endArrow=none;endFill=0;" edge="1" parent="1" source="c2Z83wSw2Ba0KcHivkK4-29" target="c2Z83wSw2Ba0KcHivkK4-45">
          <mxGeometry relative="1" as="geometry" />
        </mxCell>
        <mxCell id="c2Z83wSw2Ba0KcHivkK4-48" style="rounded=0;orthogonalLoop=1;jettySize=auto;html=1;exitX=0.5;exitY=1;exitDx=0;exitDy=0;endArrow=none;endFill=0;" edge="1" parent="1" source="c2Z83wSw2Ba0KcHivkK4-29" target="c2Z83wSw2Ba0KcHivkK4-44">
          <mxGeometry relative="1" as="geometry" />
        </mxCell>
        <mxCell id="c2Z83wSw2Ba0KcHivkK4-49" style="rounded=0;orthogonalLoop=1;jettySize=auto;html=1;exitX=0.5;exitY=1;exitDx=0;exitDy=0;entryX=0.5;entryY=0;entryDx=0;entryDy=0;endArrow=none;endFill=0;" edge="1" parent="1" source="c2Z83wSw2Ba0KcHivkK4-29" target="c2Z83wSw2Ba0KcHivkK4-43">
          <mxGeometry relative="1" as="geometry" />
        </mxCell>
        <mxCell id="c2Z83wSw2Ba0KcHivkK4-29" value="Itens_Solicitacao " style="whiteSpace=wrap;html=1;align=center;" vertex="1" parent="1">
          <mxGeometry x="20" y="370" width="100" height="40" as="geometry" />
        </mxCell>
        <mxCell id="c2Z83wSw2Ba0KcHivkK4-31" value="Cod_Func " style="ellipse;whiteSpace=wrap;html=1;align=center;" vertex="1" parent="1">
          <mxGeometry x="480" y="300" width="100" height="40" as="geometry" />
        </mxCell>
        <mxCell id="c2Z83wSw2Ba0KcHivkK4-32" value="Num_Sol " style="ellipse;whiteSpace=wrap;html=1;align=center;fontStyle=4;" vertex="1" parent="1">
          <mxGeometry x="250" y="300" width="100" height="40" as="geometry" />
        </mxCell>
        <mxCell id="c2Z83wSw2Ba0KcHivkK4-35" value="Cod_Depto " style="ellipse;whiteSpace=wrap;html=1;align=center;" vertex="1" parent="1">
          <mxGeometry x="414" y="240" width="100" height="40" as="geometry" />
        </mxCell>
        <mxCell id="c2Z83wSw2Ba0KcHivkK4-36" value="Data_Sol          " style="ellipse;whiteSpace=wrap;html=1;align=center;" vertex="1" parent="1">
          <mxGeometry x="300" y="240" width="100" height="40" as="geometry" />
        </mxCell>
        <mxCell id="c2Z83wSw2Ba0KcHivkK4-42" value="Num_Sol " style="ellipse;whiteSpace=wrap;html=1;align=center;fontStyle=4;" vertex="1" parent="1">
          <mxGeometry x="-70" y="420" width="100" height="40" as="geometry" />
        </mxCell>
        <mxCell id="c2Z83wSw2Ba0KcHivkK4-43" value="Cod_Produto " style="ellipse;whiteSpace=wrap;html=1;align=center;fontStyle=4;" vertex="1" parent="1">
          <mxGeometry x="-30" y="470" width="100" height="40" as="geometry" />
        </mxCell>
        <mxCell id="c2Z83wSw2Ba0KcHivkK4-44" value="Qtde              " style="ellipse;whiteSpace=wrap;html=1;align=center;" vertex="1" parent="1">
          <mxGeometry x="80" y="470" width="100" height="40" as="geometry" />
        </mxCell>
        <mxCell id="c2Z83wSw2Ba0KcHivkK4-45" value="Valor             " style="ellipse;whiteSpace=wrap;html=1;align=center;" vertex="1" parent="1">
          <mxGeometry x="130" y="420" width="100" height="40" as="geometry" />
        </mxCell>
      </root>
    </mxGraphModel>
  </diagram>
</mxfile>
